2.6Hz3min_grf.mot
version=1
nRows=17
nColumns 19
inDegrees=yes
endheader
time	1_ground_force_vx	1_ground_force_vy	1_ground_force_vz	1_ground_force_px	1_ground_force_py	1_ground_force_pz	1_ground_torque_x	1_ground_torque_y	1_ground_torque_z	2_ground_force_vx	2_ground_force_vy	2_ground_force_vz	2_ground_force_px	2_ground_force_py	2_ground_force_pz	2_ground_torque_x	2_ground_torque_y	2_ground_torque_z
            0.005000	          -14.122115	          906.105264	          -59.729623	           -0.249221	            0.005988	           -0.351269	           -0.005769	            0.370175	           -0.024402	           -2.304436	          814.992490	           68.607886	           -0.268698	            0.005395	           -0.664540	            0.001398	           -0.494375	           -0.041618
            0.005500	          -14.440189	          899.973159	          -59.067273	           -0.249183	            0.005989	           -0.351412	           -0.005048	            0.314601	           -0.020648	           -2.232557	          807.996909	           68.066696	           -0.268568	            0.005396	           -0.664470	            0.001443	           -0.522286	           -0.043998
            0.006000	          -14.757788	          891.858087	          -58.367565	           -0.249212	            0.005990	           -0.351623	           -0.006315	            0.381647	           -0.024977	           -2.213448	          802.657985	           67.672217	           -0.268590	            0.005396	           -0.664562	            0.001667	           -0.604518	           -0.050967
            0.006500	          -15.030097	          884.284455	          -57.849076	           -0.249017	            0.005990	           -0.351640	           -0.007250	            0.426547	           -0.027904	           -2.470100	          795.844631	           67.319521	           -0.268440	            0.005396	           -0.664507	            0.001486	           -0.478723	           -0.040495
            0.007000	          -15.118357	          879.232673	          -56.861661	           -0.248899	            0.005989	           -0.351399	           -0.007166	            0.416723	           -0.026950	           -2.536735	          788.295725	           66.870276	           -0.268432	            0.005395	           -0.664078	            0.001409	           -0.437759	           -0.037135
            0.007500	          -15.161515	          870.758242	          -56.439317	           -0.248820	            0.005990	           -0.351645	           -0.006424	            0.368949	           -0.023914	           -2.189135	          782.774788	           66.193424	           -0.268475	            0.005395	           -0.664297	            0.001109	           -0.396582	           -0.033536
            0.008000	          -15.204774	          864.086014	          -55.917532	           -0.248838	            0.005990	           -0.351733	           -0.005608	            0.318716	           -0.020625	           -2.308643	          776.883375	           65.656248	           -0.268197	            0.005397	           -0.664536	            0.001028	           -0.345958	           -0.029238
            0.008500	          -15.293684	          858.855115	          -55.206026	           -0.248634	            0.005989	           -0.351476	           -0.004840	            0.271812	           -0.017472	           -2.284861	          770.255237	           65.304098	           -0.268261	            0.005396	           -0.664276	            0.001059	           -0.357138	           -0.030279
            0.009000	          -15.016331	          850.021062	          -54.969448	           -0.248490	            0.005990	           -0.351627	           -0.005334	            0.301941	           -0.019526	           -1.982844	          764.366351	           64.485174	           -0.268070	            0.005396	           -0.664174	            0.000921	           -0.354880	           -0.029939
            0.009500	          -15.058631	          843.707535	          -54.033411	           -0.248471	            0.005990	           -0.351678	           -0.005676	            0.318011	           -0.020366	           -2.286284	          757.552326	           64.273290	           -0.267940	            0.005397	           -0.664262	            0.001201	           -0.397927	           -0.033761
            0.010000	          -15.376622	          836.494093	          -53.421550	           -0.248366	            0.005990	           -0.351650	           -0.006864	            0.373408	           -0.023847	           -2.075910	          751.110116	           63.593220	           -0.267922	            0.005396	           -0.664034	            0.001042	           -0.376934	           -0.031913
            0.010500	          -15.328130	          829.461412	          -52.901538	           -0.248288	            0.005990	           -0.351739	           -0.006893	            0.373009	           -0.023790	           -1.868216	          745.404758	           62.868850	           -0.267780	            0.005398	           -0.664272	            0.000631	           -0.251960	           -0.021251
            0.011000	          -15.371095	          822.428320	          -52.289587	           -0.248241	            0.005991	           -0.351870	           -0.005931	            0.317329	           -0.020176	           -1.748137	          738.040776	           62.373246	           -0.267753	            0.005397	           -0.664083	            0.000547	           -0.230860	           -0.019510
            0.011500	          -15.275864	          814.853383	          -51.451021	           -0.248102	            0.005991	           -0.351848	           -0.005214	            0.278108	           -0.017560	           -1.443982	          731.598236	           61.880849	           -0.267783	            0.005397	           -0.664002	            0.000446	           -0.225923	           -0.019109
            0.012000	          -15.181496	          807.640414	          -50.931896	           -0.248137	            0.005991	           -0.351823	           -0.004937	            0.262654	           -0.016564	           -1.189958	          726.076077	           61.485613	           -0.267580	            0.005398	           -0.664290	            0.000471	           -0.287165	           -0.024318
            0.012500	          -14.857146	          799.344974	          -50.188694	           -0.247945	            0.005991	           -0.351918	           -0.005026	            0.270426	           -0.016979	           -1.259875	          719.447480	           61.133502	           -0.267537	            0.005398	           -0.664113	            0.000533	           -0.304645	           -0.025887
            0.013000	          -14.992091	          792.672728	          -49.666681	           -0.247975	            0.005991	           -0.351923	           -0.006313	            0.333779	           -0.020914	           -0.861438	          712.821867	           60.452695	           -0.267547	            0.005398	           -0.664065	            0.000372	           -0.307883	           -0.026111
